HIERARCHY
ROOT Hips
{
	OFFSET 0.000001 107.585541 -0.292875
	CHANNELS 6 Xposition Yposition Zposition Xrotation Yrotation Zrotation
	JOINT Spine
	{
		OFFSET -0.023067 13.156998 0.957426
		CHANNELS 6 Xposition Yposition Zposition Xrotation Yrotation Zrotation
		JOINT Spine1
		{
			OFFSET 0.000000 9.894669 0.072741
			CHANNELS 3 Xrotation Yrotation Zrotation
			JOINT Spine2
			{
				OFFSET 0.000000 10.499985 -0.058234
				CHANNELS 3 Xrotation Yrotation Zrotation
				JOINT Neck
				{
					OFFSET -0.000000 26.776306 -4.691216
					CHANNELS 6 Xposition Yposition Zposition Xrotation Yrotation Zrotation
					JOINT Head
					{
						OFFSET 0.000000 14.063217 3.449322
						CHANNELS 6 Xposition Yposition Zposition Xrotation Yrotation Zrotation
						JOINT HeadTop_End
						{
							OFFSET 0.000000 19.645248 2.611582
							CHANNELS 6 Xposition Yposition Zposition Xrotation Yrotation Zrotation
							End Site
							{
								OFFSET 0.000000 14.113129 0.000000
							}
						}
						JOINT L_Eye
						{
							OFFSET 3.570282 7.264572 7.838836
							CHANNELS 6 Xposition Yposition Zposition Xrotation Yrotation Zrotation
							End Site
							{
								OFFSET 0.000000 14.113129 0.000000
							}
						}
						JOINT R_Eye
						{
							OFFSET -3.524154 7.264282 7.838838
							CHANNELS 6 Xposition Yposition Zposition Xrotation Yrotation Zrotation
							End Site
							{
								OFFSET 0.000000 14.113129 0.000000
							}
						}
					}
				}
				JOINT L_Shoulder
				{
					OFFSET 7.980431 21.886398 -6.266449
					CHANNELS 6 Xposition Yposition Zposition Xrotation Yrotation Zrotation
					JOINT L_Arm
					{
						OFFSET 10.677479 -5.478394 -0.078065
						CHANNELS 3 Xrotation Yrotation Zrotation
						JOINT L_ForeArm
						{
							OFFSET 27.567778 0.000015 0.000000
							CHANNELS 3 Xrotation Yrotation Zrotation
							JOINT L_Hand
							{
								OFFSET 27.500092 -0.000015 0.480016
								CHANNELS 3 Xrotation Yrotation Zrotation
								JOINT L_HandThumb1
								{
									OFFSET 5.751503 -2.607742 4.214736
									CHANNELS 6 Xposition Yposition Zposition Xrotation Yrotation Zrotation
									JOINT L_HandThumb2
									{
										OFFSET 2.728218 -1.585464 1.645159
										CHANNELS 6 Xposition Yposition Zposition Xrotation Yrotation Zrotation
										JOINT L_HandThumb3
										{
											OFFSET 2.690651 -1.563644 1.622507
											CHANNELS 6 Xposition Yposition Zposition Xrotation Yrotation Zrotation
											JOINT L_HandThumb4
											{
												OFFSET 2.811111 -1.633636 1.695147
												CHANNELS 6 Xposition Yposition Zposition Xrotation Yrotation Zrotation
												End Site
												{
													OFFSET 2.811104 -1.633652 1.695142
												}
											}
										}
									}
								}
								JOINT L_HandIndex1
								{
									OFFSET 13.704086 -1.118973 2.963548
									CHANNELS 6 Xposition Yposition Zposition Xrotation Yrotation Zrotation
									JOINT L_HandIndex2
									{
										OFFSET 2.538002 -0.000046 0.044317
										CHANNELS 3 Xrotation Yrotation Zrotation
										JOINT L_HandIndex3
										{
											OFFSET 3.551018 0.000015 0.062044
											CHANNELS 3 Xrotation Yrotation Zrotation
											JOINT L_HandIndex4
											{
												OFFSET 3.082214 0.000031 0.053894
												CHANNELS 3 Xrotation Yrotation Zrotation
												End Site
												{
													OFFSET 3.082214 0.000046 0.053895
												}
											}
										}
									}
								}
								JOINT L_HandMiddle1
								{
									OFFSET 13.314011 -0.054794 0.195248
									CHANNELS 6 Xposition Yposition Zposition Xrotation Yrotation Zrotation
									JOINT L_HandMiddle2
									{
										OFFSET 4.054405 -0.000015 0.070800
										CHANNELS 3 Xrotation Yrotation Zrotation
										JOINT L_HandMiddle3
										{
											OFFSET 2.984230 -0.000031 0.052059
											CHANNELS 3 Xrotation Yrotation Zrotation
											JOINT L_HandMiddle4
											{
												OFFSET 3.040154 -0.000031 0.053016
												CHANNELS 3 Xrotation Yrotation Zrotation
												End Site
												{
													OFFSET 3.040154 0.000000 0.053016
												}
											}
										}
									}
								}
								JOINT L_HandRing1
								{
									OFFSET 12.889366 0.014862 -3.304775
									CHANNELS 6 Xposition Yposition Zposition Xrotation Yrotation Zrotation
									JOINT L_HandRing2
									{
										OFFSET 4.066383 0.000000 0.071006
										CHANNELS 3 Xrotation Yrotation Zrotation
										JOINT L_HandRing3
										{
											OFFSET 2.688652 0.000061 0.047021
											CHANNELS 3 Xrotation Yrotation Zrotation
											JOINT L_HandRing4
											{
												OFFSET 2.892899 0.000000 0.050566
												CHANNELS 3 Xrotation Yrotation Zrotation
												End Site
												{
													OFFSET 2.892906 0.000015 0.050566
												}
											}
										}
									}
								}
								JOINT L_HandPinky1
								{
									OFFSET 12.770164 -1.052109 -6.055603
									CHANNELS 6 Xposition Yposition Zposition Xrotation Yrotation Zrotation
									JOINT L_HandPinky2
									{
										OFFSET 3.092682 -0.000046 0.054011
										CHANNELS 3 Xrotation Yrotation Zrotation
										JOINT L_HandPinky3
										{
											OFFSET 2.176254 0.000031 0.038088
											CHANNELS 3 Xrotation Yrotation Zrotation
											JOINT L_HandPinky4
											{
												OFFSET 2.208496 -0.000031 0.038607
												CHANNELS 3 Xrotation Yrotation Zrotation
												End Site
												{
													OFFSET 2.208504 -0.000031 0.038607
												}
											}
										}
									}
								}
							}
						}
					}
				}
				JOINT R_Shoulder
				{
					OFFSET -7.980434 21.886810 -6.266449
					CHANNELS 6 Xposition Yposition Zposition Xrotation Yrotation Zrotation
					JOINT R_Arm
					{
						OFFSET -10.677509 -5.479004 -0.078070
						CHANNELS 3 Xrotation Yrotation Zrotation
						JOINT R_ForeArm
						{
							OFFSET -27.567785 0.000000 -0.000000
							CHANNELS 3 Xrotation Yrotation Zrotation
							JOINT R_Hand
							{
								OFFSET -27.500015 0.000000 0.480015
								CHANNELS 3 Xrotation Yrotation Zrotation
								JOINT R_HandThumb1
								{
									OFFSET -5.971848 -2.424500 3.942988
									CHANNELS 6 Xposition Yposition Zposition Xrotation Yrotation Zrotation
									JOINT R_HandThumb2
									{
										OFFSET -2.728195 -1.584976 1.645155
										CHANNELS 6 Xposition Yposition Zposition Xrotation Yrotation Zrotation
										JOINT R_HandThumb3
										{
											OFFSET -2.690704 -1.563995 1.622524
											CHANNELS 6 Xposition Yposition Zposition Xrotation Yrotation Zrotation
											JOINT R_HandThumb4
											{
												OFFSET -2.811142 -1.633011 1.695130
												CHANNELS 6 Xposition Yposition Zposition Xrotation Yrotation Zrotation
												End Site
												{
													OFFSET -2.811142 -1.632996 1.695138
												}
											}
										}
									}
								}
								JOINT R_HandIndex1
								{
									OFFSET -13.521736 -0.054581 0.198885
									CHANNELS 6 Xposition Yposition Zposition Xrotation Yrotation Zrotation
									JOINT R_HandIndex2
									{
										OFFSET -4.381210 0.000015 0.076519
										CHANNELS 3 Xrotation Yrotation Zrotation
										JOINT R_HandIndex3
										{
											OFFSET -3.478577 0.000031 0.060751
											CHANNELS 3 Xrotation Yrotation Zrotation
											JOINT R_HandIndex4
											{
												OFFSET -6.319054 -0.000015 0.110473
												CHANNELS 3 Xrotation Yrotation Zrotation
												End Site
												{
													OFFSET -6.319061 0.000015 0.110474
												}
											}
										}
									}
								}
								JOINT R_HandRing1
								{
									OFFSET -12.702789 0.785950 -3.722343
									CHANNELS 6 Xposition Yposition Zposition Xrotation Yrotation Zrotation
									JOINT R_HandRing2
									{
										OFFSET -4.066383 0.000000 0.070999
										CHANNELS 3 Xrotation Yrotation Zrotation
										JOINT R_HandRing3
										{
											OFFSET -2.688583 0.000015 0.047006
											CHANNELS 3 Xrotation Yrotation Zrotation
											JOINT R_HandRing4
											{
												OFFSET -2.892967 -0.000015 0.050556
												CHANNELS 3 Xrotation Yrotation Zrotation
												End Site
												{
													OFFSET -2.892960 0.000015 0.050555
												}
											}
										}
									}
								}
								JOINT R_HandPinky1
								{
									OFFSET -12.544357 -0.205673 -6.499258
									CHANNELS 6 Xposition Yposition Zposition Xrotation Yrotation Zrotation
									JOINT R_HandPinky2
									{
										OFFSET -3.092621 0.000000 0.053982
										CHANNELS 3 Xrotation Yrotation Zrotation
										JOINT R_HandPinky3
										{
											OFFSET -2.176262 0.000000 0.037988
											CHANNELS 3 Xrotation Yrotation Zrotation
											JOINT R_HandPinky4
											{
												OFFSET -2.208572 0.000000 0.038550
												CHANNELS 3 Xrotation Yrotation Zrotation
												End Site
												{
													OFFSET -2.208565 0.000000 0.038550
												}
											}
										}
									}
								}
							}
						}
					}
				}
			}
		}
	}
	JOINT L_UpLeg
	{
		OFFSET 10.121319 -5.316734 0.163048
		CHANNELS 6 Xposition Yposition Zposition Xrotation Yrotation Zrotation
		JOINT L_Leg
		{
			OFFSET -0.000002 -40.854481 0.206897
			CHANNELS 3 Xrotation Yrotation Zrotation
			JOINT L_Foot
			{
				OFFSET 0.000002 -52.055374 -3.073691
				CHANNELS 3 Xrotation Yrotation Zrotation
				JOINT L_ToeBase
				{
					OFFSET 1.169127 -9.354687 13.784521
					CHANNELS 6 Xposition Yposition Zposition Xrotation Yrotation Zrotation
					JOINT L_Toe_End
					{
						OFFSET 0.516993 -0.004916 8.312323
						CHANNELS 6 Xposition Yposition Zposition Xrotation Yrotation Zrotation
						End Site
						{
							OFFSET 0.516995 -0.004916 8.312323
						}
					}
				}
			}
		}
	}
	JOINT R_UpLeg
	{
		OFFSET -10.121301 -5.316544 0.163048
		CHANNELS 6 Xposition Yposition Zposition Xrotation Yrotation Zrotation
		JOINT R_Leg
		{
			OFFSET 0.000055 -40.854687 0.206898
			CHANNELS 3 Xrotation Yrotation Zrotation
			JOINT R_Foot
			{
				OFFSET -0.000054 -52.055359 -3.073693
				CHANNELS 3 Xrotation Yrotation Zrotation
				JOINT R_ToeBase
				{
					OFFSET -1.169123 -9.354716 13.784500
					CHANNELS 6 Xposition Yposition Zposition Xrotation Yrotation Zrotation
					JOINT R_Toe_End
					{
						OFFSET -0.516972 -0.004950 8.311937
						CHANNELS 6 Xposition Yposition Zposition Xrotation Yrotation Zrotation
						End Site
						{
							OFFSET -0.516973 -0.004951 8.311935
						}
					}
				}
			}
		}
	}
}
MOTION
Frames: 4
Frame Time: 0.033333
-0.656457 100.283684 -2.925548 4.734711 23.209447 -1.523819 -0.023068 13.156996 0.957425 4.341310 -2.102225 4.232985 8.885787 -3.160407 6.331786 9.057814 -3.229926 6.045977 -0.000002 26.776304 -4.691218 12.529300 -3.181077 2.504627 0.000001 14.063180 3.449332 -12.589976 -6.654702 -16.183589 0.000003 19.645233 2.611567 -0.000000 -0.000000 0.000000 3.570285 7.264557 7.838831 0.000001 0.000000 0.000000 -3.524151 7.264267 7.838833 0.000001 0.000000 0.000000 7.980437 21.886404 -6.266453 6.922380 -21.930896 27.305080 -69.907580 -43.694691 -46.111615 -0.000016 -21.095372 0.000010 -9.866984 -6.211406 -4.985223 5.751515 -2.607731 4.214739 0.926193 5.662225 2.627928 2.728220 -1.585458 1.645165 4.400034 -0.658137 -3.555700 2.690648 -1.563636 1.622506 7.402785 41.134756 -0.422996 2.811100 -1.633645 1.695139 -0.000001 0.000003 0.000002 13.704099 -1.118976 2.963548 -11.021912 -7.597286 -13.875167 0.492014 2.778894 -20.407325 2.335569 4.908057 -40.075889 0.000001 0.000001 -0.000000 13.314021 -0.054785 0.195242 -0.960073 -2.065212 -0.494507 2.866764 6.252858 -53.957675 0.055433 2.422672 -17.743353 -0.000000 0.000000 -0.000001 12.889374 0.014851 -3.304784 -2.868558 11.841910 17.449122 0.435867 3.443639 -25.386358 1.783998 4.588780 -36.600709 0.000000 -0.000001 0.000002 12.770178 -1.052113 -6.055609 3.610949 25.240993 3.201799 0.709459 3.669762 -26.769221 3.967700 6.237000 -55.050413 -0.000002 -0.000000 0.000001 -7.980438 21.886812 -6.266459 -1.246670 -15.533394 -1.645875 45.433524 106.375845 -70.459562 0.000004 19.520872 -0.000022 11.230463 -3.732307 19.444652 -5.971849 -2.424518 3.942990 -7.997315 22.567275 -15.751557 -2.728204 -1.585010 1.645152 6.795102 -45.017025 -9.110884 -2.690710 -1.563992 1.622516 -12.845243 21.749382 8.049287 -2.811159 -1.633011 1.695133 -0.000002 -0.000002 0.000001 -13.521745 -0.054568 0.198884 0.021494 -3.878137 -20.725164 2.516836 -5.058348 44.644186 0.036975 -1.069831 8.184745 -0.000000 0.000001 -0.000001 -12.702799 0.785932 -3.722345 0.095464 -8.111863 15.771791 -0.600827 -0.971534 6.601412 -0.254468 -0.755250 5.626927 0.000000 0.000001 0.000003 -12.544339 -0.205701 -6.499256 1.042409 -10.010243 29.397616 3.574991 -6.017389 55.863537 2.437611 -4.992034 43.088563 0.000002 0.000001 -0.000005 10.121321 -5.316735 0.163040 -29.911359 6.213684 11.745625 41.938991 -8.452551 3.550634 -13.012207 -5.494957 -8.799634 1.169126 -9.354693 13.784521 -7.752350 0.000005 0.000007 0.516994 -0.004916 8.312323 0.000000 -0.000002 -0.000000 -10.121302 -5.316541 0.163044 -21.580099 -7.639302 -3.089488 40.428446 1.159113 0.631263 -23.408081 0.071223 -0.684162 -1.169120 -9.354714 13.784502 -0.000002 -0.000001 -0.000002 -0.516970 -0.004950 8.311937 0.000000 0.000001 -0.000000 
-0.233482 100.138191 -2.456049 4.674106 22.297023 -1.832289 -0.023068 13.156999 0.957424 4.345396 -2.056120 3.871107 8.844769 -3.052418 5.863966 8.994443 -3.119065 5.592535 0.000001 26.776310 -4.691209 12.348313 -2.934960 2.464208 0.000002 14.063220 3.449335 -12.699037 -6.164556 -14.751259 0.000002 19.645248 2.611585 -0.000001 0.000000 -0.000000 3.570283 7.264572 7.838837 -0.000000 -0.000000 -0.000000 -3.524152 7.264267 7.838843 -0.000000 -0.000000 -0.000000 7.980433 21.886412 -6.266450 6.702882 -21.409827 27.097698 -70.912861 -44.544803 -46.597507 -0.000011 -21.038931 0.000026 -9.854346 -6.229293 -4.917147 5.751516 -2.607716 4.214741 0.926196 5.662226 2.627933 2.728230 -1.585461 1.645169 4.400036 -0.658139 -3.555698 2.690652 -1.563672 1.622508 7.402788 41.134760 -0.422998 2.811115 -1.633625 1.695153 -0.000003 0.000005 0.000002 13.704114 -1.118963 2.963554 -11.021909 -7.597284 -13.875172 0.492017 2.778896 -20.407326 2.335565 4.908060 -40.075882 0.000000 -0.000001 -0.000000 13.314026 -0.054740 0.195254 -0.960070 -2.065212 -0.494509 2.866762 6.252859 -53.957671 0.055431 2.422674 -17.743353 -0.000000 -0.000000 0.000000 12.889374 0.014865 -3.304772 -2.868555 11.841910 17.449122 0.435863 3.443639 -25.386362 1.784001 4.588780 -36.600709 0.000001 -0.000002 0.000000 12.770172 -1.052063 -6.055601 3.610952 25.240990 3.201795 0.709457 3.669763 -26.769219 3.967703 6.236999 -55.050416 -0.000003 -0.000000 0.000000 -7.980433 21.886806 -6.266449 -1.290791 -15.181299 -2.113154 47.862134 106.234850 -72.173974 0.000002 19.244705 -0.000031 13.818825 -4.192181 20.342883 -5.971841 -2.424512 3.942983 -7.997314 22.567271 -15.751557 -2.728210 -1.585010 1.645166 6.795102 -45.017029 -9.110888 -2.690714 -1.563975 1.622509 -12.845247 21.749383 8.049284 -2.811142 -1.633028 1.695135 0.000001 -0.000000 -0.000003 -13.521733 -0.054561 0.198883 0.021493 -3.878138 -20.725164 2.516836 -5.058350 44.644186 0.036973 -1.069834 8.184744 -0.000000 -0.000000 -0.000001 -12.702795 0.785939 -3.722349 0.095465 -8.111864 15.771793 -0.600827 -0.971535 6.601407 -0.254468 -0.755250 5.626922 -0.000000 0.000001 0.000003 -12.544347 -0.205686 -6.499261 1.042409 -10.010245 29.397626 3.574990 -6.017389 55.863543 2.437611 -4.992033 43.088556 -0.000001 -0.000002 0.000000 10.121317 -5.316733 0.163036 -33.639208 5.304593 12.230626 42.357353 -8.925268 2.850792 -9.898068 -5.965654 -8.270328 1.169125 -9.354693 13.784522 -7.684512 -0.000001 0.000007 0.516990 -0.004916 8.312323 0.000000 -0.000002 -0.000000 -10.121299 -5.316559 0.163050 -20.192916 -7.744385 -2.573496 39.939620 2.247042 0.643532 -24.210417 0.151599 -1.088066 -1.169121 -9.354716 13.784503 -0.000012 -0.000000 -0.000001 -0.516971 -0.004950 8.311935 0.000000 -0.000000 -0.000000 
0.345392 100.002304 -1.853681 4.517528 20.806691 -2.080564 -0.023067 13.156992 0.957426 4.367617 -1.953935 3.500021 8.850625 -2.871426 5.367490 8.978325 -2.933630 5.112882 -0.000002 26.776304 -4.691218 12.265129 -2.616998 2.195711 0.000006 14.063216 3.449328 -13.348272 -5.451495 -13.188596 -0.000003 19.645264 2.611580 0.000001 -0.000000 0.000000 3.570278 7.264587 7.838833 0.000000 -0.000001 0.000000 -3.524155 7.264297 7.838841 0.000000 -0.000001 0.000000 7.980439 21.886387 -6.266457 6.408384 -20.691761 26.843610 -71.308876 -45.385173 -46.584738 -0.000004 -21.507554 0.000032 -9.893269 -6.213570 -4.988189 5.751503 -2.607732 4.214736 0.926195 5.662227 2.627930 2.728229 -1.585398 1.645170 4.400036 -0.658131 -3.555702 2.690656 -1.563684 1.622508 7.402787 41.134756 -0.422996 2.811126 -1.633600 1.695155 -0.000002 0.000000 0.000003 13.704103 -1.118990 2.963549 -11.021910 -7.597288 -13.875168 0.492018 2.778895 -20.407328 2.335564 4.908053 -40.075886 0.000002 -0.000002 0.000000 13.314019 -0.054756 0.195247 -0.960075 -2.065215 -0.494509 2.866760 6.252857 -53.957671 0.055432 2.422672 -17.743354 0.000001 0.000000 0.000001 12.889370 0.014843 -3.304778 -2.868561 11.841910 17.449122 0.435865 3.443639 -25.386358 1.784001 4.588780 -36.600709 -0.000001 0.000000 -0.000003 12.770176 -1.052113 -6.055613 3.610951 25.240991 3.201796 0.709458 3.669761 -26.769219 3.967701 6.236999 -55.050416 -0.000003 0.000000 -0.000000 -7.980441 21.886780 -6.266462 -1.341516 -14.672628 -2.746458 50.567261 106.219987 -74.070628 0.000002 19.101041 -0.000018 15.339509 -4.166489 20.754312 -5.971849 -2.424525 3.942993 -7.997311 22.567271 -15.751553 -2.728201 -1.584993 1.645162 6.795103 -45.017036 -9.110888 -2.690697 -1.563987 1.622504 -12.845246 21.749375 8.049283 -2.811159 -1.633013 1.695135 -0.000000 -0.000002 0.000001 -13.521737 -0.054576 0.198888 0.021493 -3.878138 -20.725162 2.516836 -5.058350 44.644189 0.036974 -1.069832 8.184743 0.000000 -0.000000 0.000002 -12.702787 0.785951 -3.722337 0.095464 -8.111866 15.771790 -0.600827 -0.971533 6.601413 -0.254468 -0.755248 5.626920 0.000000 0.000000 0.000004 -12.544332 -0.205698 -6.499255 1.042409 -10.010244 29.397619 3.574993 -6.017389 55.863547 2.437611 -4.992034 43.088559 0.000000 -0.000002 0.000004 10.121319 -5.316716 0.163049 -37.008677 4.545364 12.641480 42.063324 -9.174230 1.907996 -5.576963 -4.077539 -7.721996 1.169127 -9.354693 13.784521 -7.541282 0.000007 0.000006 0.516988 -0.004916 8.312323 -0.000000 -0.000001 -0.000000 -10.121300 -5.316541 0.163048 -18.594020 -7.658998 -1.992667 39.288836 3.918019 0.422320 -24.966425 0.039724 -1.534590 -1.169121 -9.354715 13.784502 -0.000148 -0.000004 -0.000001 -0.516971 -0.004950 8.311937 0.000000 0.000001 -0.000000 
1.114914 99.809250 -1.139891 4.307674 18.597645 -2.316155 -0.023067 13.156989 0.957428 4.411733 -1.772527 3.140637 8.916096 -2.568042 4.819413 9.023390 -2.623294 4.582882 0.000001 26.776320 -4.691219 12.167662 -2.222201 1.654425 0.000005 14.063198 3.449319 -14.717439 -4.472504 -11.542506 0.000001 19.645233 2.611581 0.000002 0.000000 0.000000 3.570283 7.264587 7.838830 0.000001 0.000000 0.000000 -3.524153 7.264297 7.838840 0.000001 0.000000 0.000000 7.980436 21.886402 -6.266451 6.029959 -19.755668 26.505649 -70.969231 -46.309386 -45.819440 -0.000002 -22.331068 0.000034 -9.989256 -6.159765 -5.214072 5.751503 -2.607738 4.214745 0.926198 5.662222 2.627929 2.728224 -1.585458 1.645164 4.400033 -0.658136 -3.555701 2.690648 -1.563665 1.622508 7.402782 41.134756 -0.422996 2.811112 -1.633627 1.695151 -0.000001 0.000001 -0.000000 13.704103 -1.118991 2.963557 -11.021907 -7.597289 -13.875171 0.492017 2.778894 -20.407330 2.335565 4.908055 -40.075889 0.000000 0.000001 -0.000000 13.314021 -0.054773 0.195249 -0.960074 -2.065217 -0.494509 2.866763 6.252860 -53.957675 0.055433 2.422674 -17.743354 -0.000001 -0.000001 0.000001 12.889375 0.014834 -3.304775 -2.868558 11.841906 17.449124 0.435868 3.443639 -25.386358 1.783999 4.588781 -36.600709 -0.000001 -0.000001 -0.000003 12.770182 -1.052125 -6.055607 3.610952 25.240991 3.201797 0.709460 3.669762 -26.769219 3.967703 6.236998 -55.050420 0.000001 -0.000000 -0.000000 -7.980433 21.886824 -6.266453 -1.383007 -14.013176 -3.467592 53.107825 106.127356 -75.823351 -0.000006 19.240380 -0.000011 15.273888 -3.524542 20.493713 -5.971849 -2.424506 3.942984 -7.997313 22.567269 -15.751550 -2.728207 -1.584979 1.645158 6.795100 -45.017036 -9.110884 -2.690699 -1.563972 1.622510 -12.845246 21.749380 8.049285 -2.811156 -1.633039 1.695128 -0.000001 0.000005 0.000002 -13.521749 -0.054568 0.198884 0.021493 -3.878139 -20.725159 2.516836 -5.058349 44.644186 0.036974 -1.069832 8.184744 -0.000001 0.000000 0.000004 -12.702791 0.785947 -3.722341 0.095464 -8.111864 15.771795 -0.600828 -0.971534 6.601409 -0.254468 -0.755249 5.626916 0.000000 -0.000000 0.000000 -12.544348 -0.205701 -6.499259 1.042410 -10.010242 29.397619 3.574991 -6.017387 55.863540 2.437612 -4.992034 43.088563 0.000001 0.000002 0.000000 10.121323 -5.316740 0.163052 -39.496590 4.041909 12.921570 40.262954 -9.393090 1.177398 -1.458238 -2.608108 -7.393846 1.169126 -9.354695 13.784522 -5.583222 0.000002 0.000008 0.516996 -0.004916 8.312323 0.000000 0.000001 -0.000000 -10.121302 -5.316547 0.163049 -16.971195 -7.394732 -1.450838 38.707768 5.943527 -0.039440 -25.749438 0.001738 -1.851611 -1.169120 -9.354716 13.784502 -0.000048 -0.000004 0.000004 -0.516970 -0.004950 8.311935 0.000000 0.000000 0.000000 
